# Blender 4.4.3
# www.blender.org
mtllib cup_rim.mtl
o quarter_cup
v 0.000000 -0.027500 0.000000
v 0.000000 -0.027500 -0.045000
v 0.022500 -0.027500 -0.038971
v 0.001720 0.027500 -0.035705
v 0.022500 0.027500 -0.038971
v 0.000000 0.027500 -0.045000
v 0.000000 0.027500 0.000000
v 0.001720 0.027500 -0.002980
v 0.038971 -0.027500 -0.022500
v 0.003071 0.027500 -0.001773
v 0.001720 0.027500 -0.001773
v 0.030974 0.027500 -0.021918
v 0.038971 0.027500 -0.022500
v 0.021865 0.027500 -0.030307
v 0.045000 -0.027500 0.000000
v 0.036371 0.027500 -0.001773
v 0.045000 0.027500 0.000000
v 0.055707 0.027477 -0.069377
v 0.072178 0.027477 -0.052906
v 0.072176 0.021847 -0.052904
v 0.055705 0.021847 -0.069375
v 0.038969 0.021870 -0.022498
v 0.022498 0.021870 -0.038969
v 0.001720 -0.023298 -0.042063
v 0.001720 -0.023298 -0.001773
v 0.021865 -0.023298 -0.036665
v 0.036613 -0.023298 -0.021918
v 0.042010 -0.023298 -0.001773
v 0.021864 0.027500 -0.036664
v 0.036611 0.027500 -0.021917
vn -0.0000 -1.0000 -0.0000
vn -0.0000 1.0000 -0.0000
vn 0.2588 -0.0000 -0.9659
vn 0.7071 -0.0000 -0.7071
vn 0.9659 -0.0000 -0.2588
vn -0.0000 -0.0000 -1.0000
vn -1.0000 -0.0000 -0.0000
vn 0.7071 -0.0005 -0.7071
vn -0.0004 -1.0000 0.0004
vn 0.6753 -0.0000 0.7375
vn -0.7071 0.0005 0.7071
vn -0.6753 -0.0000 -0.7375
vn 0.0004 1.0000 -0.0004
vn -0.2569 -0.1200 0.9589
vn -0.9604 -0.1066 0.2573
vn -0.0000 -0.0000 1.0000
vn 1.0000 -0.0000 -0.0000
vn -0.6938 -0.0833 0.7153
s 0
f 1//1 2//1 3//1
f 6//2 7//2 8//2
f 13//2 5//2 14//2 12//2
f 6//2 8//2 4//2
f 2//3 6//3 5//3
f 2//3 5//3 3//3
f 1//1 3//1 9//1
f 7//2 10//2 11//2
f 7//2 11//2 8//2
f 17//2 13//2 12//2 16//2
f 3//4 5//4 13//4
f 3//4 13//4 9//4
f 1//1 9//1 15//1
f 16//2 10//2 7//2
f 16//2 7//2 17//2
f 4//2 14//2 5//2 6//2
f 9//5 13//5 17//5
f 9//5 17//5 15//5
f 7//6 17//6 15//6
f 7//6 15//6 1//6
f 7//7 6//7 2//7
f 7//7 2//7 1//7
f 18//8 19//8 20//8
f 18//8 20//8 21//8
f 22//9 23//9 21//9
f 22//9 21//9 20//9
f 19//10 13//10 22//10
f 19//10 22//10 20//10
f 13//11 5//11 23//11
f 13//11 23//11 22//11
f 5//12 18//12 21//12
f 5//12 21//12 23//12
f 13//13 19//13 18//13
f 13//13 18//13 5//13
f 24//2 25//2 26//2
f 14//14 4//14 24//14 26//14
f 26//2 25//2 27//2
f 27//2 25//2 28//2
f 12//15 27//15 28//15 16//15
f 10//16 11//16 25//16
f 25//16 28//16 16//16
f 25//16 16//16 10//16
f 8//17 11//17 25//17
f 25//17 24//17 4//17
f 25//17 4//17 8//17
f 27//18 12//18 14//18 26//18
l 29 30
