# Blender 4.4.3
# www.blender.org
mtllib quarter_cup.mtl
o quarter_cup
v 0.000000 -0.027500 0.000000
v 0.000000 -0.027500 -0.045000
v 0.022500 -0.027500 -0.038971
v 0.001720 0.027500 -0.042063
v 0.021262 0.027500 -0.036827
v 0.022500 0.027500 -0.038971
v 0.000000 0.027500 -0.045000
v 0.000000 0.027500 0.000000
v 0.001720 0.027500 -0.002980
v 0.038971 -0.027500 -0.022500
v 0.003071 0.027500 -0.001773
v 0.001720 0.027500 -0.001773
v 0.036613 0.027500 -0.021918
v 0.036794 0.027500 -0.021243
v 0.038971 0.027500 -0.022500
v 0.021865 0.027500 -0.036665
v 0.045000 -0.027500 0.000000
v 0.042010 0.027500 -0.001773
v 0.045000 0.027500 0.000000
v 0.055707 0.027477 -0.069377
v 0.072178 0.027477 -0.052906
v 0.072176 0.021847 -0.052904
v 0.055705 0.021847 -0.069375
v 0.038969 0.021870 -0.022498
v 0.022498 0.021870 -0.038969
v 0.001720 -0.023298 -0.042063
v 0.001720 -0.023298 -0.001773
v 0.021865 -0.023298 -0.036665
v 0.036613 -0.023298 -0.021918
v 0.042010 -0.023298 -0.001773
v 0.036611 0.026072 -0.021916
v 0.021864 0.026072 -0.036663
v 0.021864 0.027500 -0.036664
v 0.036611 0.027500 -0.021917
vn -0.0000 -1.0000 -0.0000
vn -0.0000 1.0000 -0.0000
vn 0.2588 -0.0000 -0.9659
vn 0.7071 -0.0000 -0.7071
vn 0.9659 -0.0000 -0.2588
vn -0.0000 -0.0000 -1.0000
vn -1.0000 -0.0000 -0.0000
vn 0.7071 -0.0005 -0.7071
vn -0.0004 -1.0000 0.0004
vn 0.6753 -0.0000 0.7375
vn -0.7071 0.0005 0.7071
vn -0.6753 -0.0000 -0.7375
vn 0.0004 1.0000 -0.0004
vn -0.2588 -0.0000 0.9659
vn -0.7071 -0.0000 0.7071
vn -0.9659 -0.0000 0.2588
vn -0.0000 -0.0000 1.0000
vn 1.0000 -0.0000 -0.0000
s 0
f 1//1 2//1 3//1
f 4//2 5//2 6//2
f 7//2 8//2 9//2
f 4//2 6//2 7//2
f 7//2 9//2 4//2
f 2//3 7//3 6//3
f 2//3 6//3 3//3
f 1//1 3//1 10//1
f 8//2 11//2 12//2
f 8//2 12//2 9//2
f 13//2 14//2 15//2
f 6//2 5//2 16//2
f 16//2 13//2 15//2
f 15//2 6//2 16//2
f 3//4 6//4 15//4
f 3//4 15//4 10//4
f 1//1 10//1 17//1
f 18//2 11//2 8//2
f 19//2 15//2 14//2
f 18//2 8//2 19//2
f 19//2 14//2 18//2
f 10//5 15//5 19//5
f 10//5 19//5 17//5
f 8//6 19//6 17//6
f 8//6 17//6 1//6
f 8//7 7//7 2//7
f 8//7 2//7 1//7
f 20//8 21//8 22//8
f 20//8 22//8 23//8
f 24//9 25//9 23//9
f 24//9 23//9 22//9
f 21//10 15//10 24//10
f 21//10 24//10 22//10
f 15//11 6//11 25//11
f 15//11 25//11 24//11
f 6//12 20//12 23//12
f 6//12 23//12 25//12
f 15//13 21//13 20//13
f 15//13 20//13 6//13
f 26//2 27//2 28//2
f 5//14 4//14 26//14
f 26//14 28//14 16//14
f 26//14 16//14 5//14
f 28//2 27//2 29//2
f 16//15 28//15 29//15
f 16//15 29//15 13//15
f 29//2 27//2 30//2
f 13//16 29//16 30//16
f 30//16 18//16 14//16
f 30//16 14//16 13//16
f 11//17 12//17 27//17
f 27//17 30//17 18//17
f 27//17 18//17 11//17
f 9//18 12//18 27//18
f 27//18 26//18 4//18
f 27//18 4//18 9//18
f 31//8 32//8 33//8
f 31//8 33//8 34//8
